<?xml version="1.0" encoding="UTF-8"?>
<!-- Created with Inkscape (http://www.inkscape.org/) -->
<svg width="512" height="512" version="1.0" xmlns="http://www.w3.org/2000/svg">
 <g transform="matrix(.7225 0 0 .72301 -250.19 264.32)">
  <g transform="matrix(26.084,0,0,26.084,-8155.8,-13610)">
   <path d="m325.95 507.76h27.168v27.149h-27.168z" fill="#ec1b24"/>
   <g fill="#fff">
    <path d="m343.41 523.85h0.38862l-0.19873-0.33562 0.19873-0.33563h-0.38862l-0.19431-0.33562-0.19431 0.33562h-0.38862l0.19431 0.33563-0.19431 0.33562h0.38862l0.19431 0.33563 0.19431-0.33563"/>
    <path d="m349.45 523.85h0.39745l-0.17664-0.33562 0.17664-0.33563h-0.39745l-0.17664-0.33562-0.17665 0.33562h-0.39745l0.17664 0.33563-0.17664 0.33562h0.39745l0.17665 0.33563 0.17664-0.33563"/>
    <path d="m345.18 524v0.0751h-0.42394v0.49461h0.48135v3.1001h-1.104v-3.0295h-1.8415v3.0295h-0.60059v0.51227h9.1325v-0.51227h-0.61826v-3.0295h-1.8548v3.0295h-1.104v-3.1001h0.48577v-0.49461h-0.39745c-0.0442-0.53435-0.30913-0.98921-0.88322-1.1129v-0.53877h0.39745v-0.37095h-0.39745v-0.45486h-0.41953v0.45486h-0.40187v0.37095h0.40187v0.53877c-0.49461 0.11482-0.85232 0.5211-0.85232 1.0378"/>
    <path d="m346.23 530.31c-0.65359 0-1.1968 0.54407-1.1968 1.2158l-0.0221 2.0358h-3.8244c0.56526-1.577 0.94505-3.1637 1.0643-4.844h7.9976c0.13249 1.6803 0.48578 3.267 1.0599 4.844h-3.842v-2.0358c0-0.67169-0.52994-1.2158-1.2365-1.2158"/>
    <path d="m337.77 516.62h-1.0908v-3.056h-3.1796v0.70216c0 1.5324-0.90972 2.451-2.6806 2.451-1.815 0-2.6762-0.84348-2.6762-2.42v-4.4868h1.0996v4.266c0 1.0952 0.3842 1.7355 1.5898 1.7355 1.1835 0 1.5854-0.64033 1.5854-1.7355v-4.266h1.082v2.8131h3.1796v-2.8131h1.0908v2.8131h3.2017v-2.8131h1.0908v6.8097h-1.0908v-3.056h-3.2017v3.056"/>
   </g>
  </g>
 </g>
</svg>
