<?xml version="1.0" encoding="UTF-8" standalone="no"?>
<svg
   xmlns:dc="http://purl.org/dc/elements/1.1/"
   xmlns:cc="http://creativecommons.org/ns#"
   xmlns:rdf="http://www.w3.org/1999/02/22-rdf-syntax-ns#"
   xmlns:svg="http://www.w3.org/2000/svg"
   xmlns="http://www.w3.org/2000/svg"
   xmlns:sodipodi="http://sodipodi.sourceforge.net/DTD/sodipodi-0.dtd"
   xmlns:inkscape="http://www.inkscape.org/namespaces/inkscape"
   version="1.1"
   id="svg2"
   xml:space="preserve"
   width="401.20038"
   height="78.457329"
   viewBox="0 0 401.20038 78.457327"
   sodipodi:docname="RoboCup_German_Open_Logo_2022.svg"
   inkscape:version="1.0.1 (3bc2e813f5, 2020-09-07)"
   inkscape:export-filename="C:\Users\info\Docs\Projekte\2022_GermanOpen\Logo\RoboCup_German_Open_2022_Logo.png"
   inkscape:export-xdpi="96"
   inkscape:export-ydpi="96"><metadata
     id="metadata8"><rdf:RDF><cc:Work
         rdf:about=""><dc:format>image/svg+xml</dc:format><dc:type
           rdf:resource="http://purl.org/dc/dcmitype/StillImage" /><dc:title></dc:title></cc:Work></rdf:RDF></metadata><defs
     id="defs6"><clipPath
       clipPathUnits="userSpaceOnUse"
       id="clipPath18"><path
         d="M 0,0 H 340.157 V 85.039 H 0 Z"
         id="path16" /></clipPath><clipPath
       clipPathUnits="userSpaceOnUse"
       id="clipPath74"><path
         d="M 0,0 H 340.157 V 85.039 H 0 Z"
         id="path72" /></clipPath><clipPath
       clipPathUnits="userSpaceOnUse"
       id="clipPath142"><path
         d="M 0,0 H 340.157 V 85.039 H 0 Z"
         id="path140" /></clipPath><clipPath
       clipPathUnits="userSpaceOnUse"
       id="clipPath166"><path
         d="M 0,0 H 340.157 V 85.039 H 0 Z"
         id="path164" /></clipPath><clipPath
       clipPathUnits="userSpaceOnUse"
       id="clipPath190"><path
         d="M 0,0 H 340.157 V 85.039 H 0 Z"
         id="path188" /></clipPath></defs><sodipodi:namedview
     pagecolor="#ffffff"
     bordercolor="#666666"
     borderopacity="1"
     objecttolerance="10"
     gridtolerance="10"
     guidetolerance="10"
     inkscape:pageopacity="0"
     inkscape:pageshadow="2"
     inkscape:window-width="1729"
     inkscape:window-height="865"
     id="namedview4"
     showgrid="false"
     inkscape:zoom="2.3241344"
     inkscape:cx="352.04833"
     inkscape:cy="39.229064"
     inkscape:window-x="0"
     inkscape:window-y="0"
     inkscape:window-maximized="0"
     inkscape:current-layer="g10" /><g
     id="g10"
     inkscape:groupmode="layer"
     inkscape:label="RoboCup_Logo_2022"
     transform="matrix(1.3333333,0,0,-1.3333333,-28.846408,95.921998)"><g
       id="g12"
       inkscape:export-xdpi="96"
       inkscape:export-ydpi="96"
       inkscape:export-filename="RoboCup_German_Open_2022_Logo.png"><g
         id="g14"
         clip-path="url(#clipPath18)"><g
           id="g20"
           transform="translate(46.4495,59.6843)"><path
             d="m 0,0 0.412,0.505 c 5.144,6.343 12.997,10.389 21.795,10.389 8.801,0 16.655,-4.046 21.803,-10.389 L 44.418,0 h 10.075 c 2.54,0 5.359,-2.082 6.171,-4.769 l 6.826,-22.619 c 1.281,-4.243 -0.715,-6.947 -3.502,-6.947 h -19.57 l -0.408,-0.501 c -5.148,-6.34 -13.002,-10.39 -21.803,-10.39 -8.798,0 -16.651,4.05 -21.795,10.39 L 0,-34.335 h -19.57 c -2.787,0 -4.784,2.704 -3.503,6.947 l 6.827,22.619 C -15.434,-2.082 -12.615,0 -10.075,0 Z"
             style="fill:#ffffff;fill-opacity:1;fill-rule:nonzero;stroke:none"
             id="path22" /></g><g
           id="g24"
           transform="translate(36.3746,61.0475)"><path
             d="m 0,0 h 9.427 c 5.395,6.647 13.628,10.894 22.855,10.894 9.23,0 17.466,-4.247 22.862,-10.894 h 9.423 c 3.174,0 6.501,-2.505 7.478,-5.739 l 6.826,-22.618 c 1.413,-4.687 -0.701,-8.701 -4.808,-8.701 H 55.144 c -5.396,-6.648 -13.632,-10.891 -22.862,-10.891 -9.227,0 -17.46,4.243 -22.855,10.891 H -9.495 c -4.108,0 -6.222,4.014 -4.805,8.701 l 6.826,22.618 C -6.501,-2.505 -3.17,0 0,0"
             style="fill:#b2b2b2;fill-opacity:1;fill-rule:nonzero;stroke:none"
             id="path26" /></g><g
           id="g28"
           transform="translate(46.7715,59.0153)"><path
             d="m 0,0 0.608,0.751 c 5.027,6.19 12.69,10.14 21.277,10.14 8.59,0 16.254,-3.95 21.281,-10.14 L 43.777,0 h 10.394 c 2.232,0 4.801,-1.878 5.527,-4.293 l 6.83,-22.619 c 1.213,-4.021 -0.723,-6.082 -2.862,-6.082 H 43.777 l -0.611,-0.751 c -5.027,-6.19 -12.691,-10.139 -21.281,-10.139 -8.587,0 -16.25,3.949 -21.277,10.139 L 0,-32.994 h -19.892 c -2.136,0 -4.072,2.061 -2.859,6.082 l 6.826,22.619 c 0.73,2.415 3.299,4.293 5.528,4.293 z"
             style="fill:#ffffff;fill-opacity:1;fill-rule:nonzero;stroke:none"
             id="path30" /></g><g
           id="g32"
           transform="translate(100.9421,56.9795)"><path
             d="m 0,0 c 1.292,0 3.098,-1.249 3.581,-2.848 l 6.827,-22.615 c 0.962,-3.198 -0.601,-3.456 -0.913,-3.456 H -9.019 c 2.615,4.193 4.125,9.152 4.125,14.461 0,5.303 -1.51,10.261 -4.125,14.458 z"
             style="fill:#007e48;fill-opacity:1;fill-rule:nonzero;stroke:none"
             id="path34" /></g><g
           id="g36"
           transform="translate(45.3941,28.0606)"><path
             d="m 0,0 h -18.515 c -0.307,0 -1.875,0.258 -0.909,3.456 l 6.823,22.615 c 0.487,1.599 2.29,2.848 3.582,2.848 H 0 C -2.615,24.722 -4.125,19.764 -4.125,14.461 -4.125,9.152 -2.615,4.193 0,0"
             style="fill:#007e48;fill-opacity:1;fill-rule:nonzero;stroke:none"
             id="path38" /></g><g
           id="g40"
           transform="translate(43.3046,42.522)"><path
             d="M 0,0 C 0,1.939 0.218,3.835 0.633,5.653 L 2.394,0 0.633,-5.66 C 0.218,-3.842 0,-1.946 0,0"
             style="fill:#f6a648;fill-opacity:1;fill-rule:nonzero;stroke:none"
             id="path42" /></g><g
           id="g44"
           transform="translate(61.4224,18.2149)"><path
             d="M 0,0 C -3.524,1.045 -6.726,2.841 -9.427,5.195 L -3.46,3.485 Z"
             style="fill:#f6a648;fill-opacity:1;fill-rule:nonzero;stroke:none"
             id="path46" /></g><g
           id="g48"
           transform="translate(85.3181,23.4024)"><path
             d="m 0,0 c -2.701,-2.354 -5.903,-4.143 -9.424,-5.187 l 3.456,3.477 z"
             style="fill:#f6a648;fill-opacity:1;fill-rule:nonzero;stroke:none"
             id="path50" /></g><g
           id="g52"
           transform="translate(93.3823,48.1604)"><path
             d="M 0,0 C 0.411,-1.81 0.63,-3.699 0.63,-5.638 0.63,-7.585 0.411,-9.474 0,-11.291 l -1.757,5.653 z"
             style="fill:#f6a648;fill-opacity:1;fill-rule:nonzero;stroke:none"
             id="path54" /></g><g
           id="g56"
           transform="translate(75.8943,66.8256)"><path
             d="m 0,0 c 3.524,-1.048 6.726,-2.841 9.427,-5.195 l -5.971,1.71 z"
             style="fill:#f6a648;fill-opacity:1;fill-rule:nonzero;stroke:none"
             id="path58" /></g><g
           id="g60"
           transform="translate(51.995,61.627)"><path
             d="M 0,0 C 2.698,2.358 5.903,4.15 9.431,5.199 L 5.968,1.71 Z"
             style="fill:#f6a648;fill-opacity:1;fill-rule:nonzero;stroke:none"
             id="path62" /></g></g></g><g
       id="g64"
       transform="translate(74.9784,31.5741)"
       inkscape:export-xdpi="96"
       inkscape:export-ydpi="96"
       inkscape:export-filename="RoboCup_German_Open_2022_Logo.png"><path
         d="m 0,0 h -12.637 l -6.321,10.948 6.321,10.944 H 0 L 6.318,10.948 Z"
         style="fill:#f6a648;fill-opacity:1;fill-rule:nonzero;stroke:none"
         id="path66" /></g><g
       id="g68"
       inkscape:export-xdpi="96"
       inkscape:export-ydpi="96"
       inkscape:export-filename="RoboCup_German_Open_2022_Logo.png"><g
         id="g70"
         clip-path="url(#clipPath74)"><g
           id="g76"
           transform="translate(62.3383,30.2075)"><path
             d="m 0,0 h 12.64 l 3.621,-7.334 -5.234,-5.274 c -1.525,-0.286 -3.099,-0.429 -4.705,-0.429 -1.61,0 -3.184,0.143 -4.712,0.429 l -5.227,5.274 z"
             style="fill:#f6a648;fill-opacity:1;fill-rule:nonzero;stroke:none"
             id="path78" /></g><g
           id="g80"
           transform="translate(44.6177,34.4505)"><path
             d="m 0,0 2.297,7.385 h 7.925 l 6.3,-10.941 -3.739,-7.614 -7.459,2.133 C 2.969,-6.454 1.134,-3.385 0,0"
             style="fill:#f6a648;fill-opacity:1;fill-rule:nonzero;stroke:none"
             id="path82" /></g><g
           id="g84"
           transform="translate(49.9414,59.6199)"><path
             d="m 0,0 7.46,2.14 3.738,-7.621 -6.3,-10.937 h -7.925 l -2.297,7.384 C -4.189,-5.646 -2.358,-2.58 0,0"
             style="fill:#f6a648;fill-opacity:1;fill-rule:nonzero;stroke:none"
             id="path86" /></g><g
           id="g88"
           transform="translate(74.9784,54.8258)"><path
             d="m 0,0 h -12.637 l -3.624,7.338 5.234,5.274 c 1.528,0.286 3.102,0.432 4.709,0.432 1.606,0 3.18,-0.146 4.708,-0.432 L 3.621,7.338 Z"
             style="fill:#f6a648;fill-opacity:1;fill-rule:nonzero;stroke:none"
             id="path90" /></g><g
           id="g92"
           transform="translate(92.7061,50.5791)"><path
             d="m 0,0 -2.297,-7.377 h -7.925 l -6.3,10.937 3.739,7.62 7.452,-2.136 C -2.969,6.461 -1.138,3.392 0,0"
             style="fill:#f6a648;fill-opacity:1;fill-rule:nonzero;stroke:none"
             id="path94" /></g><g
           id="g96"
           transform="translate(87.3753,25.4133)"><path
             d="m 0,0 -7.452,-2.133 -3.739,7.614 6.3,10.941 H 3.034 L 5.331,9.044 C 4.193,5.653 2.358,2.583 0,0"
             style="fill:#f6a648;fill-opacity:1;fill-rule:nonzero;stroke:none"
             id="path98" /></g><g
           id="g100"
           transform="translate(131.9361,56.5647)"><path
             d="M 0,0 H 3.095 C 3.606,0 3.817,-0.05 4.007,-0.168 4.283,-0.351 4.225,-0.626 4.197,-0.726 4.129,-0.97 3.968,-1.109 3.867,-1.188 3.503,-1.449 3.063,-1.456 2.669,-1.456 h -3.095 z m -2.651,1.431 -2.057,-7.059 h 3.066 l 0.798,2.741 h 3.266 c 0.172,0 0.855,0.05 0.887,-0.44 0.015,-0.119 -0.025,-0.261 -0.057,-0.38 L 2.984,-4.626 C 2.812,-5.206 2.862,-5.356 3.02,-5.628 H 6.222 C 6.05,-5.399 6,-5.299 6.147,-4.784 l 0.261,0.888 c 0.207,0.708 0.286,1.159 -0.154,1.499 -0.283,0.211 -0.605,0.279 -1.023,0.34 0,0 0.221,0.028 0.4,0.061 0.544,0.096 1.564,0.479 1.868,1.527 C 7.703,0.233 7.442,0.59 7.227,0.801 6.748,1.281 5.989,1.349 5.71,1.381 5.263,1.431 4.801,1.431 4.354,1.431 Z"
             style="fill:#f6a648;fill-opacity:1;fill-rule:nonzero;stroke:none"
             id="path102" /></g><g
           id="g104"
           transform="translate(186.2245,55.6774)"><path
             d="m 0,0 c 0.014,0.19 0.014,0.279 -0.007,0.458 -0.122,0.583 -0.594,0.962 -0.766,1.091 -0.601,0.447 -2.039,1.048 -4.447,1.048 -2.25,0 -5.045,-0.497 -6.704,-2.128 -0.755,-0.741 -0.977,-1.41 -1.07,-1.728 -0.122,-0.419 -0.329,-1.31 0.379,-2.179 0.991,-1.21 2.916,-1.424 3.517,-1.489 0.511,-0.05 0.966,-0.071 1.492,-0.071 2.515,0 4.264,0.536 5.252,1.023 0.379,0.186 0.63,0.365 0.766,0.458 0.687,0.508 0.901,0.937 1.03,1.195 l -3.284,0.014 c -0.208,-0.35 -0.322,-0.472 -0.516,-0.622 -0.647,-0.508 -1.606,-0.687 -1.831,-0.73 -0.398,-0.057 -0.77,-0.065 -0.888,-0.065 -0.529,0 -1.875,0.065 -2.425,1.077 -0.308,0.609 -0.143,1.217 -0.072,1.467 0.326,1.109 1.217,1.693 1.757,1.961 0.955,0.469 1.953,0.508 2.282,0.508 0.329,0 1.163,-0.018 1.821,-0.44 C -3.327,0.597 -3.241,0.401 -3.17,0 Z"
             style="fill:#b2b2b2;fill-opacity:1;fill-rule:nonzero;stroke:none"
             id="path106" /></g><g
           id="g108"
           transform="translate(145.1914,55.1155)"><path
             d="m 0,0 c 0.841,-0.007 1.445,-0.379 1.542,-0.987 0.04,-0.272 -0.021,-0.48 -0.057,-0.609 -0.247,-0.89 -1.063,-1.302 -1.531,-1.452 -0.161,-0.057 -0.491,-0.15 -0.913,-0.15 -0.815,0 -1.427,0.343 -1.567,0.908 -0.078,0.312 0,0.584 0.036,0.702 0.057,0.2 0.211,0.729 0.877,1.159 C -0.966,-0.018 -0.233,0.011 0,0 M 0.301,1.259 C -1.864,1.242 -3.317,0.683 -4.118,0.19 c -1.12,-0.676 -1.402,-1.467 -1.51,-1.829 -0.093,-0.329 -0.25,-0.958 0.29,-1.588 0.293,-0.336 0.648,-0.53 0.809,-0.608 0.83,-0.401 2.128,-0.601 3.195,-0.601 0.486,0 2.565,0.028 4.243,0.951 1.284,0.709 1.613,1.517 1.735,1.94 C 4.83,-0.919 4.733,-0.386 4.329,0.082 3.535,1.009 1.832,1.27 0.301,1.259"
             style="fill:#b2b2b2;fill-opacity:1;fill-rule:nonzero;stroke:none"
             id="path110" /></g><g
           id="g112"
           transform="translate(156.2288,55.0762)"><path
             d="M 0,0 C 0.279,0 0.444,-0.021 0.555,-0.05 1.056,-0.14 1.893,-0.519 1.578,-1.599 1.549,-1.689 1.503,-1.85 1.381,-2.046 0.966,-2.701 0.197,-2.987 -0.104,-3.066 c -0.34,-0.093 -0.644,-0.093 -0.787,-0.093 -0.093,0 -0.318,0 -0.569,0.05 -0.279,0.072 -0.948,0.308 -1.059,0.97 -0.032,0.25 0.022,0.483 0.05,0.583 0.262,0.887 1.145,1.306 1.582,1.438 C -0.472,0 -0.157,0 0,0 m -1.134,2.92 h -3.03 l -2.058,-7.059 h 2.884 l 0.222,0.765 c 0.111,-0.114 0.29,-0.272 0.629,-0.465 0.902,-0.515 1.771,-0.565 2.297,-0.565 1.711,0 2.906,0.565 3.478,0.959 1.02,0.687 1.345,1.578 1.431,1.874 0.122,0.412 0.333,1.51 -0.755,2.24 C 3.116,1.242 1.996,1.288 1.563,1.288 0.311,1.288 -0.708,0.948 -1.152,0.78 -1.377,0.691 -1.481,0.651 -1.853,0.462 Z"
             style="fill:#b2b2b2;fill-opacity:1;fill-rule:nonzero;stroke:none"
             id="path114" /></g><g
           id="g116"
           transform="translate(167.4987,55.1155)"><path
             d="M 0,0 C 0.837,-0.007 1.442,-0.379 1.542,-0.987 1.581,-1.259 1.52,-1.467 1.481,-1.596 1.234,-2.486 0.419,-2.898 -0.046,-3.048 c -0.161,-0.057 -0.491,-0.15 -0.913,-0.15 -0.819,0 -1.431,0.343 -1.567,0.908 -0.078,0.312 0,0.584 0.032,0.702 0.061,0.2 0.215,0.729 0.88,1.159 C -0.966,-0.018 -0.233,0.011 0,0 M 0.3,1.259 C -1.864,1.242 -3.317,0.683 -4.122,0.19 c -1.116,-0.676 -1.402,-1.467 -1.506,-1.829 -0.096,-0.329 -0.254,-0.958 0.286,-1.588 0.297,-0.336 0.652,-0.53 0.813,-0.608 0.83,-0.401 2.128,-0.601 3.195,-0.601 0.486,0 2.561,0.028 4.239,0.951 1.288,0.709 1.617,1.517 1.739,1.94 0.183,0.626 0.089,1.159 -0.315,1.627 C 3.535,1.009 1.832,1.27 0.3,1.259"
             style="fill:#b2b2b2;fill-opacity:1;fill-rule:nonzero;stroke:none"
             id="path118" /></g><g
           id="g120"
           transform="translate(203.3762,55.0654)"><path
             d="M 0,0 C 0.88,0 1.488,-0.401 1.588,-1.019 1.631,-1.277 1.574,-1.467 1.539,-1.588 1.303,-2.408 0.522,-2.855 0.136,-2.998 c -0.437,-0.158 -0.837,-0.158 -0.995,-0.158 -0.601,0 -1.13,0.172 -1.424,0.516 -0.15,0.161 -0.322,0.483 -0.164,1.012 0.272,0.991 1.202,1.388 1.717,1.528 0.229,0.061 0.501,0.089 0.73,0.1 m -3.034,-3.613 c 0.15,-0.093 0.293,-0.194 0.451,-0.272 0.157,-0.093 0.322,-0.158 0.501,-0.229 0.286,-0.1 0.944,-0.322 1.896,-0.322 1.495,0 3.17,0.486 4.15,1.56 0.515,0.547 0.687,1.08 0.751,1.298 0.179,0.63 0.373,2.101 -1.71,2.68 -0.644,0.179 -1.237,0.19 -1.509,0.19 -1.21,0 -2.04,-0.272 -2.533,-0.48 C -1.431,0.651 -1.624,0.54 -1.975,0.311 l 0.2,0.709 h -2.933 l -2.068,-7.095 h 3.027 z"
             style="fill:#b2b2b2;fill-opacity:1;fill-rule:nonzero;stroke:none"
             id="path122" /></g><g
           id="g124"
           transform="translate(187.6127,56.0851)"><path
             d="m 0,0 -0.665,-2.268 c -0.265,-0.97 -0.372,-1.456 -0.237,-1.9 0.108,-0.358 0.308,-0.558 0.451,-0.658 0.737,-0.559 2.061,-0.58 2.333,-0.58 0.358,0 1.574,0.029 2.733,0.53 0.244,0.1 0.401,0.178 0.83,0.429 L 5.238,-5.148 H 8.107 L 9.61,0 H 6.612 L 5.918,-2.365 C 5.76,-2.808 5.603,-3.277 5.095,-3.646 4.859,-3.839 4.315,-4.125 3.521,-4.125 c -0.566,0 -0.852,0.136 -1.002,0.25 -0.508,0.351 -0.365,0.838 -0.222,1.367 L 3.027,0 Z"
             style="fill:#b2b2b2;fill-opacity:1;fill-rule:nonzero;stroke:none"
             id="path126" /></g><g
           id="g128"
           transform="translate(138.1902,28.0606)"><path
             d="m 0,0 h -2.778 l -0.615,1.38 c -0.877,-1.168 -1.608,-1.752 -3.451,-1.752 -2.486,0 -4.153,1.328 -4.153,3.743 v 11.494 c 0,3.132 1.492,4.459 5.382,4.459 4.123,0 5.615,-1.327 5.615,-4.459 v -1.168 h -4.27 v 1.141 c 0,0.743 -0.351,1.035 -1.228,1.035 -0.878,0 -1.229,-0.292 -1.229,-1.035 V 4.114 c 0,-0.743 0.351,-1.035 1.229,-1.035 0.877,0 1.228,0.292 1.228,1.035 v 4.062 h -1.258 v 3.45 H 0 Z"
             style="fill:#007e48;fill-opacity:1;fill-rule:nonzero;stroke:none"
             id="path130" /></g></g></g><g
       id="g132"
       transform="translate(140.7987,47.013)"
       inkscape:export-xdpi="96"
       inkscape:export-ydpi="96"
       inkscape:export-filename="RoboCup_German_Open_2022_Logo.png"><path
         d="M 0,0 H 9.216 V -3.451 H 4.485 v -3.875 h 4.516 v -3.451 H 4.485 v -4.725 h 4.731 v -3.45 H 0 Z"
         style="fill:#007e48;fill-opacity:1;fill-rule:nonzero;stroke:none"
         id="path134" /></g><g
       id="g136"
       inkscape:export-xdpi="96"
       inkscape:export-ydpi="96"
       inkscape:export-filename="RoboCup_German_Open_2022_Logo.png"><g
         id="g138"
         clip-path="url(#clipPath142)"><g
           id="g144"
           transform="translate(152.2321,28.0606)"><path
             d="m 0,0 v 18.952 h 5.377 c 3.68,0 5.319,-0.849 5.319,-3.875 v -2.256 c 0,-1.142 -0.518,-2.575 -2.415,-2.841 V 9.927 C 10.006,9.662 10.811,8.6 10.811,6.185 V 2.07 c 0,-1.46 0,-1.778 0.287,-2.07 H 6.872 C 6.699,0.292 6.613,0.557 6.613,0.77 v 6.45 c 0,0.637 -0.489,0.956 -1.351,0.956 H 4.198 V 0 Z m 4.198,11.626 h 1.064 c 0.891,0 1.236,0.266 1.236,1.938 0,1.566 -0.23,1.938 -1.236,1.938 H 4.198 Z"
             style="fill:#007e48;fill-opacity:1;fill-rule:nonzero;stroke:none"
             id="path146" /></g></g></g><g
       id="g148"
       transform="translate(173.8834,31.9893)"
       inkscape:export-xdpi="96"
       inkscape:export-ydpi="96"
       inkscape:export-filename="RoboCup_German_Open_2022_Logo.png"><path
         d="M 0,0 H 0.057 L 2.012,15.024 H 8.683 V -3.929 H 4.715 V 12.263 H 4.657 L 2.07,-3.929 H -2.099 L -4.687,12.263 H -4.744 V -3.929 h -3.968 v 18.953 h 6.67 z"
         style="fill:#007e48;fill-opacity:1;fill-rule:nonzero;stroke:none"
         id="path150" /></g><g
       id="g152"
       transform="translate(184.0668,28.0606)"
       inkscape:export-xdpi="96"
       inkscape:export-ydpi="96"
       inkscape:export-filename="RoboCup_German_Open_2022_Logo.png"><path
         d="M 0,0 3.591,18.952 H 9.347 L 12.938,0 H 8.457 L 7.952,3.344 H 4.955 L 4.51,0 Z m 5.4,6.795 h 2.078 l -0.92,8.972 H 6.499 Z"
         style="fill:#007e48;fill-opacity:1;fill-rule:nonzero;stroke:none"
         id="path154" /></g><g
       id="g156"
       transform="translate(207.1835,47.013)"
       inkscape:export-xdpi="96"
       inkscape:export-ydpi="96"
       inkscape:export-filename="RoboCup_German_Open_2022_Logo.png"><path
         d="M 0,0 H 3.935 V -18.952 H -1.283 L -4.874,-5.707 H -4.932 V -18.952 H -8.866 V 0 h 5.275 l 3.534,-13.352 H 0 Z"
         style="fill:#007e48;fill-opacity:1;fill-rule:nonzero;stroke:none"
         id="path158" /></g><g
       id="g160"
       inkscape:export-xdpi="96"
       inkscape:export-ydpi="96"
       inkscape:export-filename="RoboCup_German_Open_2022_Logo.png"><g
         id="g162"
         clip-path="url(#clipPath166)"><g
           id="g168"
           transform="translate(218.5376,42.9252)"><path
             d="m 0,0 c 0,3.557 1.71,4.459 5.359,4.459 3.649,0 5.36,-0.902 5.36,-4.459 v -10.777 c 0,-3.557 -1.711,-4.459 -5.36,-4.459 -3.649,0 -5.359,0.902 -5.359,4.459 z m 4.162,-10.75 c 0,-0.744 0.342,-1.035 1.197,-1.035 0.856,0 1.198,0.291 1.198,1.035 v 10.723 c 0,0.744 -0.342,1.036 -1.198,1.036 -0.855,0 -1.197,-0.292 -1.197,-1.036 z"
             style="fill:#007e48;fill-opacity:1;fill-rule:nonzero;stroke:none"
             id="path170" /></g><g
           id="g172"
           transform="translate(235.5658,28.0606)"><path
             d="m 0,0 h -4.147 v 18.952 h 5.113 c 4.062,0 5.34,-0.955 5.34,-4.326 v -3.61 C 6.306,7.645 5.028,6.689 0.966,6.689 H 0 Z m 0,10.14 h 1.051 c 0.938,0 1.222,0.424 1.222,2.495 0,2.707 -0.227,2.867 -1.222,2.867 H 0 Z"
             style="fill:#007e48;fill-opacity:1;fill-rule:nonzero;stroke:none"
             id="path174" /></g></g></g><g
       id="g176"
       transform="translate(243.6154,47.013)"
       inkscape:export-xdpi="96"
       inkscape:export-ydpi="96"
       inkscape:export-filename="RoboCup_German_Open_2022_Logo.png"><path
         d="M 0,0 H 9.07 V -3.451 H 4.414 v -3.875 h 4.444 v -3.451 H 4.414 v -4.725 H 9.07 v -3.45 H 0 Z"
         style="fill:#007e48;fill-opacity:1;fill-rule:nonzero;stroke:none"
         id="path178" /></g><g
       id="g180"
       transform="translate(263.5859,47.013)"
       inkscape:export-xdpi="96"
       inkscape:export-ydpi="96"
       inkscape:export-filename="RoboCup_German_Open_2022_Logo.png"><path
         d="M 0,0 H 3.968 V -18.952 H -1.294 L -4.917,-5.707 H -4.974 V -18.952 H -8.942 V 0 h 5.319 l 3.565,-13.352 H 0 Z"
         style="fill:#007e48;fill-opacity:1;fill-rule:nonzero;stroke:none"
         id="path182" /></g><g
       id="g184"
       inkscape:export-xdpi="96"
       inkscape:export-ydpi="96"
       inkscape:export-filename="RoboCup_German_Open_2022_Logo.png"><g
         id="g186"
         clip-path="url(#clipPath190)"><g
           id="g192"
           transform="translate(279.7906,31.2894)"><path
             d="m 0,0 c 2.671,3.951 4.28,6.536 4.826,7.754 0.546,1.217 0.819,2.372 0.819,3.464 0,1.438 -0.485,2.626 -1.456,3.565 -0.97,0.938 -2.402,1.408 -4.295,1.408 -0.966,0 -1.795,-0.153 -2.486,-0.46 -0.691,-0.306 -1.253,-0.758 -1.685,-1.355 -0.432,-0.597 -0.703,-1.204 -0.813,-1.82 -0.11,-0.617 -0.165,-1.46 -0.165,-2.528 V 9.333 h 4.266 v 1.814 c 0,0.841 0.088,1.403 0.265,1.686 0.177,0.282 0.446,0.424 0.808,0.424 0.362,0 0.631,-0.128 0.809,-0.383 C 1.07,12.618 1.158,12.232 1.158,11.713 1.158,11.037 0.865,10.097 0.28,8.891 -0.305,7.685 -2.149,4.544 -5.252,-0.53 L -5.255,-3.252 H 5.221 V 0 Z m 18.083,12.526 c -0.146,0.66 -0.423,1.253 -0.831,1.779 -0.409,0.527 -1.025,0.973 -1.85,1.338 -0.825,0.365 -1.76,0.548 -2.805,0.548 -1.28,0 -2.37,-0.263 -3.27,-0.79 C 8.428,14.875 7.827,14.176 7.524,13.304 7.222,12.432 7.071,11.12 7.071,9.368 V 2.71 c 0,-1.343 0.094,-2.323 0.282,-2.94 0.189,-0.617 0.507,-1.204 0.955,-1.761 0.448,-0.558 1.049,-0.969 1.803,-1.232 0.754,-0.263 1.701,-0.395 2.84,-0.395 0.864,0 1.645,0.126 2.345,0.377 0.699,0.252 1.296,0.664 1.791,1.238 0.495,0.573 0.821,1.19 0.978,1.85 0.157,0.66 0.236,1.712 0.236,3.158 v 6.363 c 0,1.445 -0.073,2.498 -0.218,3.158 M 13.54,1.52 c 0,-0.935 -0.055,-1.536 -0.165,-1.803 -0.11,-0.267 -0.342,-0.4 -0.695,-0.4 -0.354,0 -0.584,0.113 -0.69,0.341 -0.106,0.228 -0.159,0.896 -0.159,2.004 v 9.309 c 0,0.982 0.057,1.608 0.171,1.879 0.114,0.271 0.348,0.407 0.701,0.407 0.362,0 0.591,-0.128 0.69,-0.383 0.098,-0.256 0.147,-0.89 0.147,-1.903 z M 25.052,0 c 2.671,3.951 4.28,6.536 4.826,7.754 0.546,1.217 0.819,2.372 0.819,3.464 0,1.438 -0.485,2.626 -1.455,3.565 -0.971,0.938 -2.402,1.408 -4.295,1.408 -0.967,0 -1.796,-0.153 -2.487,-0.46 -0.691,-0.306 -1.253,-0.758 -1.685,-1.355 -0.432,-0.597 -0.703,-1.204 -0.813,-1.82 -0.11,-0.617 -0.165,-1.46 -0.165,-2.528 V 9.333 h 4.266 v 1.814 c 0,0.841 0.088,1.403 0.265,1.686 0.177,0.282 0.447,0.424 0.809,0.424 0.361,0 0.631,-0.128 0.808,-0.383 0.177,-0.256 0.265,-0.642 0.265,-1.161 0,-0.676 -0.292,-1.616 -0.878,-2.822 C 24.747,7.685 22.903,4.544 19.8,-0.53 L 19.797,-3.252 H 30.273 V 0 Z"
             style="fill:#f6a648;fill-opacity:1;fill-rule:nonzero;stroke:none"
             id="path194" /></g><g
           id="g196"
           transform="translate(316.8901,31.2894)"><path
             d="m 0,0 c 2.671,3.951 4.28,6.536 4.826,7.754 0.546,1.217 0.819,2.372 0.819,3.464 0,1.438 -0.485,2.626 -1.456,3.565 -0.97,0.938 -2.402,1.408 -4.295,1.408 -0.966,0 -1.795,-0.153 -2.486,-0.46 -0.691,-0.306 -1.253,-0.758 -1.685,-1.355 -0.432,-0.597 -0.703,-1.204 -0.813,-1.82 -0.11,-0.617 -0.165,-1.46 -0.165,-2.528 V 9.333 h 4.266 v 1.814 c 0,0.841 0.088,1.403 0.265,1.686 0.177,0.282 0.446,0.424 0.808,0.424 0.362,0 0.631,-0.128 0.809,-0.383 C 1.07,12.618 1.158,12.232 1.158,11.713 1.158,11.037 0.865,10.097 0.28,8.891 -0.305,7.685 -2.149,4.544 -5.252,-0.53 L -5.255,-3.252 H 5.221 V 0 Z"
             style="fill:#f6a648;fill-opacity:1;fill-rule:nonzero;stroke:none"
             id="path198" /></g></g></g></g></svg>
