<?xml version="1.0" encoding="UTF-8" standalone="no"?>
<!-- Created with Inkscape (http://www.inkscape.org/) -->

<svg
   version="1.1"
   id="svg111"
   xml:space="preserve"
   width="2137.5078"
   height="758.86224"
   viewBox="0 0 2137.5078 758.86223"
   xmlns="http://www.w3.org/2000/svg"
   xmlns:svg="http://www.w3.org/2000/svg"><defs
     id="defs115"><clipPath
       clipPathUnits="userSpaceOnUse"
       id="clipPath145"><path
         d="M 7.40833,7.40833 H 586.669 V 412.397 H 7.40833 V 7.40833"
         clip-rule="evenodd"
         id="path143" /></clipPath><clipPath
       clipPathUnits="userSpaceOnUse"
       id="clipPath201"><path
         d="M 7.40833,7.40833 H 586.669 V 412.397 H 7.40833 V 7.40833"
         clip-rule="evenodd"
         id="path199" /></clipPath><clipPath
       clipPathUnits="userSpaceOnUse"
       id="clipPath213"><path
         d="M 7.40833,7.40833 H 586.669 V 412.397 H 7.40833 V 7.40833"
         clip-rule="evenodd"
         id="path211" /></clipPath><clipPath
       clipPathUnits="userSpaceOnUse"
       id="clipPath225"><path
         d="M 7.40833,7.40833 H 586.669 V 412.397 H 7.40833 V 7.40833"
         clip-rule="evenodd"
         id="path223" /></clipPath><clipPath
       clipPathUnits="userSpaceOnUse"
       id="clipPath237"><path
         d="M 7.40833,7.40833 H 586.669 V 412.397 H 7.40833 V 7.40833"
         clip-rule="evenodd"
         id="path235" /></clipPath><clipPath
       clipPathUnits="userSpaceOnUse"
       id="clipPath249"><path
         d="M 7.40833,7.40833 H 586.669 V 412.397 H 7.40833 V 7.40833"
         clip-rule="evenodd"
         id="path247" /></clipPath><clipPath
       clipPathUnits="userSpaceOnUse"
       id="clipPath261"><path
         d="M 7.40833,7.40833 H 586.669 V 412.397 H 7.40833 V 7.40833"
         clip-rule="evenodd"
         id="path259" /></clipPath><clipPath
       clipPathUnits="userSpaceOnUse"
       id="clipPath273"><path
         d="M 7.40833,7.40833 H 586.669 V 412.397 H 7.40833 V 7.40833"
         clip-rule="evenodd"
         id="path271" /></clipPath><clipPath
       clipPathUnits="userSpaceOnUse"
       id="clipPath441"><path
         d="M 7.76111,7.76111 H 586.317 V 412.044 H 7.76111 V 7.76111"
         clip-rule="evenodd"
         id="path439" /></clipPath></defs><g
     id="g117"
     transform="matrix(1.3333333,0,0,1.3333333,-53.914664,-415.39338)"><g
       id="g119"><g
         id="g121"
         transform="scale(2.83465)"><g
           id="g123"><g
             id="g125"
             transform="scale(0.352778)"><g
               id="g127" /></g></g></g><g
         id="g133"
         transform="scale(2.83465)"><g
           id="g135"><g
             id="g137" /><g
             id="g139"><g
               id="g141"
               clip-path="url(#clipPath145)"><g
                 id="g147"><path
                   d="m 526.598,284.678 -4.348,0.905 -4.401,0.602 -4.432,0.296 -4.441,-0.012 -4.43,-0.319 -4.397,-0.625 -4.344,-0.929 -4.269,-1.226 10.281,-23.091 9.573,-6.955 22.931,10.21 -7.723,21.144"
                   style="fill:#008282;fill-opacity:1;fill-rule:evenodd;stroke:none"
                   id="path149" /></g><g
                 id="g151"><path
                   d="m 578.831,224.019 -0.52,4.475 -0.815,4.43 -1.105,4.367 -1.392,4.284 -1.672,4.182 -1.945,4.063 -2.21,3.926 -22.495,0.811 -1.631,-15.512 -1.041,-9.909 17.104,-18.996 17.722,13.879"
                   style="fill:#008282;fill-opacity:1;fill-rule:evenodd;stroke:none"
                   id="path153" /></g><g
                 id="g155"><path
                   d="m 556.389,195.616 -23.553,-5.007 13.526,-30.379 3.573,2.33 3.421,2.55 3.254,2.759 3.075,2.957 2.884,3.144 -6.18,21.646"
                   style="fill:#008282;fill-opacity:1;fill-rule:evenodd;stroke:none"
                   id="path157" /></g><g
                 id="g159"><path
                   d="m 510.068,241.747 15.633,-35.112 3.779,17.782 -8.713,7.845 -10.589,9.534 -0.11,-0.049"
                   style="fill:#008282;fill-opacity:1;fill-rule:evenodd;stroke:none"
                   id="path161" /></g><g
                 id="g163"><path
                   d="m 32.5288,118.946 0.1546,-1.668 0.4585,-1.611 0.7468,-1.5 1.0097,-1.337 1.2381,-1.129 1.4245,-0.882 1.5623,-0.605 1.6469,-0.308 h 1.6754 l 1.6469,0.308 1.5623,0.605 1.4244,0.882 1.2382,1.129 1.0097,1.337 0.7468,1.5 0.4585,1.611 0.1545,1.668 -0.1545,1.669 -0.4585,1.611 -0.7468,1.5 -1.0097,1.337 -1.2382,1.129 -1.4244,0.882 -1.5623,0.605 -1.6469,0.308 h -1.6754 l -1.6469,-0.308 -1.5623,-0.605 -1.4245,-0.882 -1.2381,-1.129 -1.0097,-1.337 -0.7468,-1.5 -0.4585,-1.611 -0.1546,-1.669"
                   style="fill:#00b5ac;fill-opacity:1;fill-rule:evenodd;stroke:none"
                   id="path165" /></g><g
                 id="g167"><path
                   d="m 30.3358,218.584 0.1552,-1.774 0.4608,-1.72 0.7524,-1.613 1.0212,-1.459 1.259,-1.259 1.4584,-1.021 1.6136,-0.752 1.7197,-0.461 1.7737,-0.155 1.7736,0.155 1.7198,0.461 1.6135,0.752 1.4585,1.021 1.2589,1.259 1.0212,1.459 0.7524,1.613 0.4609,1.72 0.1551,1.774 -0.1551,1.773 -0.4609,1.72 -0.7524,1.614 -1.0212,1.458 -1.2589,1.259 -1.4585,1.021 -1.6135,0.753 -1.7198,0.461 -1.7736,0.155 -1.7737,-0.155 -1.7197,-0.461 -1.6136,-0.753 -1.4584,-1.021 -1.259,-1.259 -1.0212,-1.458 -0.7524,-1.614 -0.4608,-1.72 -0.1552,-1.773"
                   style="fill:#00b5ac;fill-opacity:1;fill-rule:evenodd;stroke:none"
                   id="path169" /></g><g
                 id="g171"><path
                   d="m 52.7727,167.138 3.5219,-2.9 3.7098,-2.655 3.8807,-2.398 4.034,-2.131 4.1687,-1.853 4.2845,-1.568 4.3805,-1.274 4.4567,-0.975 4.5124,-0.672 4.5474,-0.365 4.5618,-0.057 4.5549,0.251 4.528,0.558 4.48,0.863 4.411,1.164 4.322,1.46 4.214,1.748 -27.6283,62.055 -2.6186,-0.253 -2.5781,-0.523 -2.5097,-0.789 -2.1004,-0.887 -1.9744,-1.14 -1.818,-1.375 -1.6338,-1.591 -1.4242,-1.78 -1.3115,-2.188 -1.1064,-2.299 -0.8922,-2.39 -1.1769,-3.878 -1.0146,-3.923 -0.8714,-3.646 -1.1107,-3.579 -1.3452,-3.499 -1.5737,-3.402 -1.4427,-2.248 -1.6519,-2.099 -1.846,-1.93 -2.0229,-1.744 -2.5131,-1.884 -2.6717,-1.651 -2.8087,-1.405 -2.9232,-1.148"
                   style="fill:#00b5ac;fill-opacity:1;fill-rule:evenodd;stroke:none"
                   id="path173" /></g><g
                 id="g175"><path
                   d="m 73.5962,251.33 h 9.4502 l -2.3079,5.183 h -7.1423 v -5.183"
                   style="fill:#00b5ac;fill-opacity:1;fill-rule:evenodd;stroke:none"
                   id="path177" /></g><g
                 id="g179"><path
                   d="m 449.222,150.523 84.552,-0.002 -7.529,16.91 h -67.641 l -22.774,51.153 h 67.641 l -7.529,16.91 h -67.641 l -15.245,34.24 h 67.641 l -7.529,16.911 h -84.551 l 60.605,-136.122"
                   style="fill:#008282;fill-opacity:1;fill-rule:evenodd;stroke:none"
                   id="path181" /></g><g
                 id="g183"><path
                   d="m 432.312,150.523 -37.831,84.971 h -22.774 v 51.151 h -16.91 V 235.494 H 326.84 l -22.774,51.151 h -16.91 l 60.605,-136.122 h 84.551 m -24.234,16.45 h -50.731 l -22.978,51.611 h 50.73 l 22.979,-51.611"
                   style="fill:#008282;fill-opacity:1;fill-rule:evenodd;stroke:none"
                   id="path185" /></g><g
                 id="g187"><path
                   d="m 199.087,218.584 -30.303,68.061 H 84.2334 L 144.839,150.523 h 84.551 l -15.245,34.24 h -16.91 l 7.92,-17.79 h -50.73 l -45.753,102.761 h 50.731 l 15.245,-34.24 H 149.95 l 7.529,-16.91 h 41.608"
                   style="fill:#00b5ac;fill-opacity:1;fill-rule:evenodd;stroke:none"
                   id="path189" /></g><g
                 id="g191"><path
                   d="m 246.3,150.523 h 84.551 L 270.246,286.645 H 185.695 L 246.3,150.523 m 9.586,16.45 -45.752,102.761 h 50.73 l 45.752,-102.761 h -50.73"
                   style="fill:#00b5ac;fill-opacity:1;fill-rule:evenodd;stroke:none"
                   id="path193" /></g><g
                 id="g195"><g
                   id="g197"
                   clip-path="url(#clipPath201)"><g
                     id="g203"><path
                       d="m 551.349,163.574 c 17.426,12.833 27.714,33.186 27.714,54.828 0,37.607 -30.486,68.093 -68.093,68.093 -6.621,0 -13.207,-0.965 -19.549,-2.866"
                       style="fill:none;stroke:#008282;stroke-width:1.5;stroke-linecap:round;stroke-linejoin:round;stroke-miterlimit:10;stroke-dasharray:none;stroke-opacity:1"
                       id="path205" /></g></g></g><g
                 id="g207"><g
                   id="g209"
                   clip-path="url(#clipPath213)"><g
                     id="g215"><path
                       d="m 557.845,267.792 c -8.738,8.294 -19.521,14.12 -31.247,16.886"
                       style="fill:none;stroke:#008282;stroke-width:1.5;stroke-linecap:round;stroke-linejoin:round;stroke-miterlimit:10;stroke-dasharray:none;stroke-opacity:1"
                       id="path217" /></g></g></g><g
                 id="g219"><g
                   id="g221"
                   clip-path="url(#clipPath225)"><g
                     id="g227"><path
                       d="m 33.7329,193.976 c 2.0082,-5.226 4.6532,-10.184 7.875,-14.762"
                       style="fill:none;stroke:#00b5ac;stroke-width:1.5;stroke-linecap:round;stroke-linejoin:round;stroke-miterlimit:10;stroke-dasharray:none;stroke-opacity:1"
                       id="path229" /></g></g></g><g
                 id="g231"><g
                   id="g233"
                   clip-path="url(#clipPath237)"><g
                     id="g239"><path
                       d="m 66.0846,218.584 c 0,-14.103 -11.4323,-25.535 -25.5348,-25.535 -14.1025,0 -25.5349,11.432 -25.5349,25.535 0,14.102 11.4324,25.535 25.5349,25.535 14.1025,0 25.5348,-11.433 25.5348,-25.535"
                       style="fill:none;stroke:#00b5ac;stroke-width:1.5;stroke-linecap:round;stroke-linejoin:round;stroke-miterlimit:10;stroke-dasharray:none;stroke-opacity:1"
                       id="path241" /></g></g></g><g
                 id="g243"><g
                   id="g245"
                   clip-path="url(#clipPath249)"><g
                     id="g251"><path
                       d="M 66.1964,278.979 C 52.4217,271.908 41.4683,260.353 35.1426,246.221"
                       style="fill:none;stroke:#00b5ac;stroke-width:1.5;stroke-linecap:round;stroke-linejoin:round;stroke-miterlimit:10;stroke-dasharray:none;stroke-opacity:1"
                       id="path253" /></g></g></g><g
                 id="g255"><g
                   id="g257"
                   clip-path="url(#clipPath261)"><g
                     id="g263"><path
                       d="M 69.9429,280.761 C 53.4312,273.519 40.4659,260.023 33.8905,243.235"
                       style="fill:none;stroke:#00b5ac;stroke-width:1.5;stroke-linecap:round;stroke-linejoin:round;stroke-miterlimit:10;stroke-dasharray:none;stroke-opacity:1"
                       id="path265" /></g></g></g><g
                 id="g267"><g
                   id="g269"
                   clip-path="url(#clipPath273)"><g
                     id="g275"><path
                       d="m 35.122,190.63 c 10.9564,-24.527 35.3089,-40.321 62.1719,-40.321 9.6691,0 19.2281,2.06 28.0401,6.041"
                       style="fill:none;stroke:#00b5ac;stroke-width:1.5;stroke-linecap:round;stroke-linejoin:round;stroke-miterlimit:10;stroke-dasharray:none;stroke-opacity:1"
                       id="path277" /></g></g></g><g
                 id="g279"><path
                   d="M 479.707,309.938 561.055,127.229"
                   style="fill:none;stroke:#008282;stroke-width:1.5;stroke-linecap:round;stroke-linejoin:round;stroke-miterlimit:10;stroke-dasharray:none;stroke-opacity:1"
                   id="path281" /></g><g
                 id="g283"><path
                   d="m 540.064,227.856 3.941,1.28"
                   style="fill:none;stroke:#008282;stroke-width:1.5;stroke-linecap:round;stroke-linejoin:round;stroke-miterlimit:10;stroke-dasharray:none;stroke-opacity:1"
                   id="path285" /></g><g
                 id="g287"><path
                   d="m 544.005,229.136 1.041,9.909"
                   style="fill:none;stroke:#008282;stroke-width:1.5;stroke-linecap:round;stroke-linejoin:round;stroke-miterlimit:10;stroke-dasharray:none;stroke-opacity:1"
                   id="path289" /></g><g
                 id="g291"><path
                   d="m 532.852,225.512 11.153,3.624"
                   style="fill:none;stroke:#008282;stroke-width:1.5;stroke-linecap:round;stroke-linejoin:round;stroke-miterlimit:10;stroke-dasharray:none;stroke-opacity:1"
                   id="path293" /></g><g
                 id="g295"><path
                   d="M 544.005,229.136 561.109,210.14"
                   style="fill:none;stroke:#008282;stroke-width:1.5;stroke-linecap:round;stroke-linejoin:round;stroke-miterlimit:10;stroke-dasharray:none;stroke-opacity:1"
                   id="path297" /></g><g
                 id="g299"><path
                   d="m 561.109,210.14 -4.72,-14.524"
                   style="fill:none;stroke:#008282;stroke-width:1.5;stroke-linecap:round;stroke-linejoin:round;stroke-miterlimit:10;stroke-dasharray:none;stroke-opacity:1"
                   id="path301" /></g><g
                 id="g303"><path
                   d="m 556.389,195.616 -23.553,-5.007"
                   style="fill:none;stroke:#008282;stroke-width:1.5;stroke-linecap:round;stroke-linejoin:round;stroke-miterlimit:10;stroke-dasharray:none;stroke-opacity:1"
                   id="path305" /></g><g
                 id="g307"><path
                   d="m 546.677,254.557 -2.672,-25.421"
                   style="fill:none;stroke:#008282;stroke-width:1.5;stroke-linecap:round;stroke-linejoin:round;stroke-miterlimit:10;stroke-dasharray:none;stroke-opacity:1"
                   id="path309" /></g><g
                 id="g311"><path
                   d="M 544.005,229.136 561.109,210.14"
                   style="fill:none;stroke:#008282;stroke-width:1.5;stroke-linecap:round;stroke-linejoin:round;stroke-miterlimit:10;stroke-dasharray:none;stroke-opacity:1"
                   id="path313" /></g><g
                 id="g315"><path
                   d="m 561.109,210.14 17.722,13.879"
                   style="fill:none;stroke:#008282;stroke-width:1.5;stroke-linecap:round;stroke-linejoin:round;stroke-miterlimit:10;stroke-dasharray:none;stroke-opacity:1"
                   id="path317" /></g><g
                 id="g319"><path
                   d="m 578.831,224.019 -0.52,4.475"
                   style="fill:none;stroke:#008282;stroke-width:1.5;stroke-linecap:round;stroke-linejoin:round;stroke-miterlimit:10;stroke-dasharray:none;stroke-opacity:1"
                   id="path321" /></g><g
                 id="g323"><path
                   d="m 578.311,228.494 -0.815,4.43"
                   style="fill:none;stroke:#008282;stroke-width:1.5;stroke-linecap:round;stroke-linejoin:round;stroke-miterlimit:10;stroke-dasharray:none;stroke-opacity:1"
                   id="path325" /></g><g
                 id="g327"><path
                   d="m 577.496,232.924 -1.105,4.367"
                   style="fill:none;stroke:#008282;stroke-width:1.5;stroke-linecap:round;stroke-linejoin:round;stroke-miterlimit:10;stroke-dasharray:none;stroke-opacity:1"
                   id="path329" /></g><g
                 id="g331"><path
                   d="m 576.391,237.291 -1.392,4.284"
                   style="fill:none;stroke:#008282;stroke-width:1.5;stroke-linecap:round;stroke-linejoin:round;stroke-miterlimit:10;stroke-dasharray:none;stroke-opacity:1"
                   id="path333" /></g><g
                 id="g335"><path
                   d="m 574.999,241.575 -1.672,4.182"
                   style="fill:none;stroke:#008282;stroke-width:1.5;stroke-linecap:round;stroke-linejoin:round;stroke-miterlimit:10;stroke-dasharray:none;stroke-opacity:1"
                   id="path337" /></g><g
                 id="g339"><path
                   d="m 573.327,245.757 -1.945,4.063"
                   style="fill:none;stroke:#008282;stroke-width:1.5;stroke-linecap:round;stroke-linejoin:round;stroke-miterlimit:10;stroke-dasharray:none;stroke-opacity:1"
                   id="path341" /></g><g
                 id="g343"><path
                   d="m 571.382,249.82 -2.21,3.926"
                   style="fill:none;stroke:#008282;stroke-width:1.5;stroke-linecap:round;stroke-linejoin:round;stroke-miterlimit:10;stroke-dasharray:none;stroke-opacity:1"
                   id="path345" /></g><g
                 id="g347"><path
                   d="m 569.172,253.746 -22.495,0.811"
                   style="fill:none;stroke:#008282;stroke-width:1.5;stroke-linecap:round;stroke-linejoin:round;stroke-miterlimit:10;stroke-dasharray:none;stroke-opacity:1"
                   id="path349" /></g><g
                 id="g351"><path
                   d="m 545.046,239.045 1.631,15.512"
                   style="fill:none;stroke:#008282;stroke-width:1.5;stroke-linecap:round;stroke-linejoin:round;stroke-miterlimit:10;stroke-dasharray:none;stroke-opacity:1"
                   id="path353" /></g><g
                 id="g355"><path
                   d="m 546.677,254.557 -12.356,8.977"
                   style="fill:none;stroke:#008282;stroke-width:1.5;stroke-linecap:round;stroke-linejoin:round;stroke-miterlimit:10;stroke-dasharray:none;stroke-opacity:1"
                   id="path357" /></g><g
                 id="g359"><path
                   d="m 511.39,253.324 22.931,10.21"
                   style="fill:none;stroke:#008282;stroke-width:1.5;stroke-linecap:round;stroke-linejoin:round;stroke-miterlimit:10;stroke-dasharray:none;stroke-opacity:1"
                   id="path361" /></g><g
                 id="g363"><path
                   d="m 534.321,263.534 -7.723,21.144"
                   style="fill:none;stroke:#008282;stroke-width:1.5;stroke-linecap:round;stroke-linejoin:round;stroke-miterlimit:10;stroke-dasharray:none;stroke-opacity:1"
                   id="path365" /></g><g
                 id="g367"><path
                   d="m 546.362,160.23 3.573,2.33"
                   style="fill:none;stroke:#008282;stroke-width:1.5;stroke-linecap:round;stroke-linejoin:round;stroke-miterlimit:10;stroke-dasharray:none;stroke-opacity:1"
                   id="path369" /></g><g
                 id="g371"><path
                   d="m 549.935,162.56 3.421,2.55"
                   style="fill:none;stroke:#008282;stroke-width:1.5;stroke-linecap:round;stroke-linejoin:round;stroke-miterlimit:10;stroke-dasharray:none;stroke-opacity:1"
                   id="path373" /></g><g
                 id="g375"><path
                   d="m 553.356,165.11 3.254,2.759"
                   style="fill:none;stroke:#008282;stroke-width:1.5;stroke-linecap:round;stroke-linejoin:round;stroke-miterlimit:10;stroke-dasharray:none;stroke-opacity:1"
                   id="path377" /></g><g
                 id="g379"><path
                   d="m 556.61,167.869 3.075,2.957"
                   style="fill:none;stroke:#008282;stroke-width:1.5;stroke-linecap:round;stroke-linejoin:round;stroke-miterlimit:10;stroke-dasharray:none;stroke-opacity:1"
                   id="path381" /></g><g
                 id="g383"><path
                   d="m 559.685,170.826 2.884,3.144"
                   style="fill:none;stroke:#008282;stroke-width:1.5;stroke-linecap:round;stroke-linejoin:round;stroke-miterlimit:10;stroke-dasharray:none;stroke-opacity:1"
                   id="path385" /></g><g
                 id="g387"><path
                   d="m 562.569,173.97 -6.18,21.646"
                   style="fill:none;stroke:#008282;stroke-width:1.5;stroke-linecap:round;stroke-linejoin:round;stroke-miterlimit:10;stroke-dasharray:none;stroke-opacity:1"
                   id="path389" /></g><g
                 id="g391"><path
                   d="M 544.005,229.136 529.48,224.417"
                   style="fill:none;stroke:#008282;stroke-width:1.5;stroke-linecap:round;stroke-linejoin:round;stroke-miterlimit:10;stroke-dasharray:none;stroke-opacity:1"
                   id="path393" /></g><g
                 id="g395"><path
                   d="m 529.48,224.417 -19.302,17.379"
                   style="fill:none;stroke:#008282;stroke-width:1.5;stroke-linecap:round;stroke-linejoin:round;stroke-miterlimit:10;stroke-dasharray:none;stroke-opacity:1"
                   id="path397" /></g><g
                 id="g399"><path
                   d="m 529.48,224.417 -3.779,-17.782"
                   style="fill:none;stroke:#008282;stroke-width:1.5;stroke-linecap:round;stroke-linejoin:round;stroke-miterlimit:10;stroke-dasharray:none;stroke-opacity:1"
                   id="path401" /></g><g
                 id="g403"><path
                   d="m 510.178,241.796 1.212,11.528"
                   style="fill:none;stroke:#008282;stroke-width:1.5;stroke-linecap:round;stroke-linejoin:round;stroke-miterlimit:10;stroke-dasharray:none;stroke-opacity:1"
                   id="path405" /></g><g
                 id="g407"><path
                   d="m 511.39,253.324 -9.573,6.955"
                   style="fill:none;stroke:#008282;stroke-width:1.5;stroke-linecap:round;stroke-linejoin:round;stroke-miterlimit:10;stroke-dasharray:none;stroke-opacity:1"
                   id="path409" /></g><g
                 id="g411"><path
                   d="m 510.178,241.796 -0.11,-0.049"
                   style="fill:none;stroke:#008282;stroke-width:1.5;stroke-linecap:round;stroke-linejoin:round;stroke-miterlimit:10;stroke-dasharray:none;stroke-opacity:1"
                   id="path413" /></g><g
                 id="g415"><path
                   d="M 544.005,229.136 529.48,224.417"
                   style="fill:none;stroke:#008282;stroke-width:1.5;stroke-linecap:round;stroke-linejoin:round;stroke-miterlimit:10;stroke-dasharray:none;stroke-opacity:1"
                   id="path417" /></g><g
                 id="g419"><path
                   d="m 529.48,224.417 -3.779,-17.782"
                   style="fill:none;stroke:#008282;stroke-width:1.5;stroke-linecap:round;stroke-linejoin:round;stroke-miterlimit:10;stroke-dasharray:none;stroke-opacity:1"
                   id="path421" /></g><g
                 id="g423"><path
                   d="M 56.9522,309.938 97.6258,218.584"
                   style="fill:none;stroke:#00b5ac;stroke-width:1.5;stroke-linecap:round;stroke-linejoin:round;stroke-miterlimit:10;stroke-dasharray:none;stroke-opacity:1"
                   id="path425" /></g><g
                 id="g427"><path
                   d="m 41.6079,128.025 v 51.189"
                   style="fill:none;stroke:#00b5ac;stroke-width:1.5;stroke-linecap:round;stroke-linejoin:round;stroke-miterlimit:10;stroke-dasharray:none;stroke-opacity:1"
                   id="path429" /></g><g
                 id="g431"><path
                   d="M 97.6258,218.584 138.3,127.229"
                   style="fill:none;stroke:#00b5ac;stroke-width:1.5;stroke-linecap:round;stroke-linejoin:round;stroke-miterlimit:10;stroke-dasharray:none;stroke-opacity:1"
                   id="path433" /></g></g></g><g
             id="g435"><g
               id="g437"
               clip-path="url(#clipPath441)"><g
                 id="g443"><g
                   id="g445" /><g
                   id="g449" /><g
                   id="g453" /><g
                   id="g457" /><g
                   id="g461" /><g
                   id="g465" /><g
                   id="g469" /><g
                   id="g473" /><g
                   id="g477" /><g
                   id="g481" /><g
                   id="g485" /><g
                   id="g489" /><g
                   id="g493" /><g
                   id="g497" /><g
                   id="g501" /><g
                   id="g505" /><g
                   id="g509" /><g
                   id="g513" /><g
                   id="g517" /><g
                   id="g521" /><g
                   id="g525" /><g
                   id="g529" /><g
                   id="g533" /><g
                   id="g537" /><g
                   id="g541" /></g></g></g></g></g></g></g></svg>
