<?xml version="1.0" encoding="UTF-8"?>
<!-- Generator: Adobe Illustrator 25.4.1, SVG Export Plug-In . SVG Version: 6.00 Build 0)  -->
<svg width="727.2" height="512" version="1.1" viewBox="0 0 727.2 512" xml:space="preserve" xmlns="http://www.w3.org/2000/svg">
<style type="text/css">
	.st0{fill:#00C1D4;}
</style>
<g transform="matrix(1.1576 0 0 1.1576 -215.19 -323.2)">
	<polygon class="st0" points="185.9 301.9 216 301.9 216 384.8 241.7 384.8 241.7 301.9 271.8 301.9 271.8 279.2 185.9 279.2"/>
	<polygon class="st0" points="380.8 384.8 406.5 384.8 406.5 343.4 440.9 343.4 440.9 384.8 466.7 384.8 466.7 279.2 440.9 279.2 440.9 320.7 406.5 320.7 406.5 279.2 380.8 279.2"/>
	<polygon class="st0" points="479.5 384.8 505.3 384.8 505.3 343.4 539.6 343.4 539.6 384.8 565.4 384.8 565.4 279.2 539.6 279.2 539.6 320.7 505.3 320.7 505.3 279.2 479.5 279.2"/>
	<path class="st0" d="m325 386.3c23.7 0 43-19.1 43-42.6v-64.5h-25.6v64.5c0 9.5-7.8 17.2-17.4 17.2-9.5 0-17.3-7.7-17.4-17.2v-64.5h-25.6v64.5c0.1 23.5 19.3 42.6 43 42.6z"/>
	<path class="st0" d="m548.2 640.9c-17 0-29.4 12-29.4 28.8 0 16.7 12.4 28.9 29.4 28.9s29.3-12.2 29.3-28.9-12.3-28.8-29.3-28.8zm0 50c-11.9 0-20.6-8.9-20.6-21.3 0-12.3 8.6-21.1 20.6-21.1 11.8 0 20.5 8.9 20.5 21.1-0.1 12.5-8.7 21.3-20.5 21.3z"/>
	<path class="st0" d="m284 640.9c-17 0-29.4 12-29.4 28.8 0 16.7 12.4 28.9 29.4 28.9 13.8 0 25.5-9 28.5-21.4h-8.9c-2.4 8.2-10.2 14.2-19.5 14.2-11.4 0-19.9-8-21-19h50c0.1-0.9 0.2-1.8 0.2-2.7 0-16.7-12.3-28.8-29.3-28.8zm-20.7 24.8c1.7-10.5 9.9-17.6 20.8-17.6s19.4 7.3 20.9 17.6z"/>
	<path class="st0" d="m351.8 648.5c9.9 0 18.1 6.7 19.9 16.1h8.8c-1.8-13.8-13.9-23.8-28.6-23.8-17 0-29.4 12-29.4 28.8 0 16.7 12.4 28.9 29.4 28.9 14.8 0 26.8-10 28.6-23.9h-8.8c-1.8 9.4-9.9 16.3-19.9 16.3-11.9 0-20.6-8.9-20.6-21.3 0-12.2 8.7-21.1 20.6-21.1z"/>
	<rect class="st0" x="589.8" y="619.1" width="8.7" height="78.4"/>
	<polygon class="st0" points="233.4 627.4 258.4 627.4 258.4 619.1 199.2 619.1 199.2 627.4 224.2 627.4 224.2 697.5 233.4 697.5"/>
	<path class="st0" d="m728.5 652c-4.9-6.8-12.8-11-22.4-11-15.9 0-27.5 11.7-27.5 28s11.6 28 27.5 28c9.5 0 17.5-4.2 22.4-11.1v8.7c0 11.5-8.5 19.8-20.3 19.8-8.4 0-16.4-5-18.8-11.7l-8.3-0.1c2.7 10.9 14.2 18.9 27.4 18.9 16.7 0 28.6-11.5 28.6-27.3v-52.2h-8.6zm-20.4 38c-11.9 0-20.6-8.9-20.6-21.1 0-12.4 8.6-21.3 20.6-21.3 11.8 0 20.5 8.9 20.5 21.3-0.1 12.3-8.7 21.1-20.5 21.1z"/>
	<polygon class="st0" points="803.1 641.8 793.9 641.8 774.9 682.4 755.7 641.8 746.5 641.8 770.8 691.1 756.3 719.8 765.5 719.8"/>
	<path class="st0" d="m484.8 640.9c-8.5 0-15.2 4-18.7 10.8v-9.9h-8.8v55.7h8.8v-32.5c0-10.5 6.4-17.2 16.2-17.2s16 6.7 16 17.2v32.5h8.6v-33.5c0.1-14-8.9-23.1-22.1-23.1z"/>
	<path class="st0" d="m640.2 640.9c-17 0-29.4 12-29.4 28.8 0 16.7 12.4 28.9 29.4 28.9s29.3-12.2 29.3-28.9-12.3-28.8-29.3-28.8zm0 50c-11.9 0-20.6-8.9-20.6-21.3 0-12.3 8.6-21.1 20.6-21.1 11.8 0 20.5 8.9 20.5 21.1-0.1 12.5-8.7 21.3-20.5 21.3z"/>
	<path class="st0" d="m420.1 640.9c-8.5 0-15.2 4-18.7 10.8v-32.6h-8.8v78.4h8.8v-32.5c0-10.5 6.4-17.2 16.2-17.2s16 6.7 16 17.2v32.5h8.6v-33.5c0-14-8.9-23.1-22.1-23.1z"/>
	<rect class="st0" x="339.3" y="537.4" width="8.6" height="55.7"/>
	<path class="st0" d="m343.6 517.1c-3.5 0-5.9 2.3-5.9 5.5 0 3.3 2.4 5.6 5.9 5.6 3.4 0 5.8-2.3 5.8-5.6 0-3.2-2.4-5.5-5.8-5.5z"/>
	<path class="st0" d="m810.1 521.1c1 0 2.6 0.2 4 0.8v-7.8c-1.4-0.2-3-0.3-4.1-0.3-9.2 0-15.7 5.9-15.7 14.4v9.2h-8.2v7.4h8.2v48.2h8.7v-48.3h11v-7.4h-11v-9.2c0.1-4.2 2.9-7 7.1-7z"/>
	<polygon class="st0" points="608.8 544.7 608.8 593 617.4 593 617.4 544.7 630.2 544.7 630.2 537.4 617.4 537.4 617.4 523.2 608.8 523.2 608.8 537.4 598.5 537.4 598.5 544.7"/>
	<path class="st0" d="m545.6 542.9c7.4 0 12.4 3.9 12.6 9.7h8.1c0-9.5-8.4-16.1-20.6-16.1-12.3 0-20.7 6.3-20.7 15.8 0 12.6 11.9 14.9 20.5 16.4 7.2 1.4 13.6 2.4 13.6 9.5 0 5.6-5.3 9.3-13 9.3-8.1 0-13.6-4.1-13.9-10.2h-8.5c0.2 9.9 9.2 16.8 22.2 16.8 12.8 0 21.7-6.7 21.7-16.4 0-12.8-12.7-15-20.9-16.6-7.2-1.5-13.1-2.6-13.1-9.7 0.1-5.1 5-8.5 12-8.5z"/>
	<path class="st0" d="m584.6 528.1c3.4 0 5.8-2.3 5.8-5.6 0-3.2-2.4-5.5-5.8-5.5-3.5 0-5.9 2.3-5.9 5.5 0 3.4 2.4 5.6 5.9 5.6z"/>
	<path class="st0" d="m495.4 550.9v-13.5h-8.7v55.6h8.7v-28.2c0-12.8 8-20.2 21.6-20.2v-8.5c-10.5 0-18.1 5.3-21.6 14.8z"/>
	<rect class="st0" x="580.3" y="537.4" width="8.6" height="55.7"/>
	<path class="st0" d="m473.7 572.7h-8.9c-2.4 8.2-10.2 14.2-19.5 14.2-11.4 0-19.9-8-21-19h50c0.1-0.9 0.2-1.8 0.2-2.7 0-16.7-12.3-28.8-29.3-28.8s-29.4 12-29.4 28.8c0 16.7 12.4 28.9 29.4 28.9 13.7 0 25.4-9 28.5-21.4zm-28.4-29.1c10.9 0 19.4 7.3 20.9 17.6h-41.7c1.7-10.4 9.9-17.6 20.8-17.6z"/>
	<path class="st0" d="m751.1 594.1c17 0 29.3-12.2 29.3-28.9s-12.3-28.8-29.3-28.8-29.4 12-29.4 28.8c0 16.7 12.4 28.9 29.4 28.9zm0-50c11.8 0 20.5 8.9 20.5 21.1 0 12.4-8.6 21.3-20.5 21.3s-20.6-8.9-20.6-21.3c0-12.3 8.7-21.1 20.6-21.1z"/>
	<path class="st0" d="m229 594.1c18 0 30-11.9 30-30v-49.4h-9.2v49c0 13.3-8.2 21.9-20.9 21.9-12.6 0-20.8-8.6-20.8-21.9v-49h-9.3v49.4c-0.1 18 12.1 30 30.2 30z"/>
	<polygon class="st0" points="684.3 537.4 665.3 577.9 646.1 537.4 636.9 537.4 661.2 586.6 646.7 615.3 655.9 615.3 693.5 537.4"/>
	<path class="st0" d="m324.4 593v-33.5c0-14-9-23.1-22.2-23.1-8.5 0-15.2 4-18.8 10.8v-9.9h-8.7v55.7h8.7v-32.5c0-10.5 6.4-17.2 16.3-17.2 9.8 0 16 6.7 16 17.2v32.5z"/>
	<polygon class="st0" points="384.7 584.4 366.2 537.4 357 537.4 379.5 593 389.8 593 412.3 537.4 403.1 537.4"/>
	<path class="st0" d="m638 488.3c9.5 0 17.5-4.2 22.4-11.1v8.7c0 11.5-8.5 19.8-20.3 19.8-8.4 0-16.4-5-18.8-11.7l-8.3-0.1c2.7 10.9 14.2 18.9 27.4 18.9 16.7 0 28.6-11.5 28.6-27.3v-52.2h-8.6v10.1c-4.9-6.8-12.8-11-22.4-11-15.9 0-27.5 11.7-27.5 28 0 16.2 11.6 27.9 27.5 27.9zm2-49.2c11.8 0 20.5 8.9 20.5 21.3 0 12.3-8.6 21.1-20.5 21.1s-20.6-8.9-20.6-21.1c0-12.4 8.6-21.3 20.6-21.3z"/>
	<path class="st0" d="m354.8 441.6v-8.3h-8.8v55.7h8.8v-35.2c0-8.9 5.2-14.3 13.5-14.3 8.5 0 13.5 5.5 13.5 14.3v35.2h8.6v-35.2c0-8.9 5.2-14.3 13.6-14.3s13.4 5.5 13.4 14.3v35.2h8.6v-36.3c0-12.5-7.6-20.3-19.2-20.3-8.6 0-15.2 4.2-18.2 11.3-2.7-7-8.9-11.3-17.2-11.3-7.4 0-13.4 3.3-16.6 9.2z"/>
	<polygon class="st0" points="248.7 454.4 248.7 489 258 489 258 410.6 248.7 410.6 248.7 446.1 208.8 446.1 208.8 410.6 199.6 410.6 199.6 489 208.8 489 208.8 454.4"/>
	<path class="st0" d="m560.7 466.1v-32.7h-8.8v32.7c0 10.1-6.2 16.7-15.9 16.7s-15.9-6.6-15.9-16.7v-32.7h-8.7v32.7c0 14.4 9.9 24 24.7 24 14.7-0.1 24.6-9.6 24.6-24z"/>
	<path class="st0" d="m299.6 490c9.4 0 17.4-4.2 22.3-11.1v10.1h8.6v-55.7h-8.6v10.2c-4.9-6.9-12.8-11.1-22.3-11.1-16 0-27.6 12-27.6 28.8 0 16.7 11.6 28.8 27.6 28.8zm1.9-50c11.8 0 20.5 8.9 20.5 21.1 0 12.4-8.6 21.3-20.5 21.3s-20.6-8.9-20.6-21.3c0-12.2 8.6-21.1 20.6-21.1z"/>
	<path class="st0" d="m450.2 443.6v-33h-8.7v78.4h8.7v-10.1c4.9 6.8 12.7 11.1 22.3 11.1 15.9 0 27.6-12.2 27.6-28.9s-11.7-28.8-27.6-28.8c-9.6 0.1-17.4 4.3-22.3 11.3zm20.5-3.6c11.9 0 20.5 8.9 20.5 21.1 0 12.4-8.5 21.3-20.5 21.3-11.9 0-20.5-8.9-20.5-21.3 0-12.2 8.5-21.1 20.5-21.1z"/>
	<path class="st0" d="m584.5 460.8c0-12.8 8-20.2 21.6-20.2v-8.5c-10.5 0-18.1 5.3-21.6 14.8v-13.5h-8.7v55.6h8.7z"/>
</g>
</svg>
